<svg xmlns="http://www.w3.org/2000/svg" viewBox="0 0 800 560" role="img" aria-labelledby="b60t b60d"><title id="b60t">BLK-060 Lime and Soda non-final comic-vector mock-up</title><desc id="b60d">A content human teetotaller in crisp three-quarter close-up lifts a clear fizzing glass, round dimpled face calm against a blurred warm crowd while a lime wedge and plain car-park token occupy separate depth planes. Non-final placeholder art.</desc><defs><linearGradient id="b60g" x2="1" y2="1"><stop stop-color="#1e6970"/><stop offset="1" stop-color="#10333c"/></linearGradient><radialGradient id="b60f"><stop stop-color="#d8ff83"/><stop offset="1" stop-color="#75c550" stop-opacity="0"/></radialGradient></defs><path fill="url(#b60g)" d="M0 0h800v560H0z"/><ellipse cx="575" cy="169" rx="250" ry="220" fill="url(#b60f)"/><g stroke="#211a20" stroke-width="8" stroke-linecap="round" stroke-linejoin="round"><!-- blurred crowd as cropped silhouettes --><path fill="#9d4d3f" d="M0 553q-3-255 52-367 41-78 100-68 69 15 96 112l33 323z"/><path fill="#b56a43" d="M548 554q5-248 61-358 43-78 102-66 65 17 89 108v316z"/><path fill="#6b3a48" d="M79 552q5-205 55-298 39-66 91-57 61 13 88 93l31 262z"/><!-- three-quarter body --><path fill="#31565d" d="M180 560q14-200 78-309 52-81 136-85 97 4 156 98 68 111 75 296z"/><path fill="#52747a" d="M219 560q18-175 70-273 43-63 107-66 74 4 120 74 59 96 70 265z"/><!-- round dimpled head --><path fill="#a96a51" d="M274 54q64-50 143-28 87 27 119 107 29 75-9 142-37 62-109 82-70 16-127-33-56-51-61-128-5-78 44-142z"/><path fill="#4c342a" d="M276 54q61-59 143-36 75 23 111 78-104-42-254-42z"/><path fill="#a96a51" d="M239 133q-45-11-47 31 7 46 49 51M535 150q43-14 51 26 5 43-56 53"/><circle cx="315" cy="142" r="20" fill="#eddfaa"/><circle cx="455" cy="155" r="18" fill="#eddfaa"/><circle cx="321" cy="143" r="6" fill="#211a20"/><circle cx="460" cy="156" r="6" fill="#211a20"/><path fill="#bb7b59" d="M389 146q16 34-3 58l18 12q24-8 35 8-15 24-42 14-25-8-17-29 10-29 9-63z"/><path fill="none" stroke="#3b2927" stroke-width="12" d="M341 287q63-13 121 8"/><g fill="#c37c61" stroke="none"><circle cx="287" cy="226" r="6"/><circle cx="306" cy="243" r="5"/><circle cx="489" cy="242" r="6"/><circle cx="472" cy="266" r="5"/></g><path fill="#52747a" d="M290 333q-78 20-125 87l-72 103 81 37 125-118M496 326q70 12 111 71l74 93-63 64-126-110"/><path fill="#a96a51" d="M172 407q-58 8-99 49-35 35-30 68 4 29 31 32 26 3 41-29 8 30 34 22 24-8 16-39 15 23 37 9 20-14 3-40 21 15 37-4 15-18-13-42z"/><!-- glass foreground --><path fill="#c9e8df" opacity=".9" d="M492 290q70-34 130 5l-13 230H476z"/><path fill="#70bfc1" opacity=".7" d="M508 333q45-20 84 5l-9 161h-86z"/><path fill="none" stroke="#f4ffff" stroke-width="5" d="M522 352q8 47-2 105M566 344q-6 58 4 111"/><path fill="#a1df45" d="M579 285q39-48 86-17-16 61-70 78z"/><path fill="#d8ee76" d="M599 289q20-23 42-10-10 29-36 38z"/><!-- token separate foreground --><circle cx="173" cy="334" r="55" fill="#d5c283"/><circle cx="173" cy="334" r="31" fill="#8c774c"/><path fill="none" stroke="#eee0a1" d="M160 322l27 25M188 322l-28 27"/><path fill="#252b2e" d="M229 507l-37 53h128l40-68zM470 489l44 71h142l-84-86z"/><g fill="#e9fff0" stroke="none"><circle cx="539" cy="383" r="6"/><circle cx="558" cy="414" r="7"/><circle cx="532" cy="449" r="5"/></g></g></svg>
