<?xml version="1.0" encoding="UTF-8"?>
<svg xmlns="http://www.w3.org/2000/svg" viewBox="0 0 800 560" role="img" aria-labelledby="cash-title cash-desc"><title id="cash-title">BLK-022 Cash-in-Hand non-final comic-vector mock-up</title><desc id="cash-desc">An extreme workbench crop shows huge dusty hands feeding folded anonymous notes into a thick envelope among tools and unfinished plaster; the worker's wary eyes appear only as a warped reflection in a metal fitting above a curling blank receipt. Non-final placeholder art.</desc>
<defs><linearGradient id="cash-wall"><stop stop-color="#aaa28f"/><stop offset="1" stop-color="#44504f"/></linearGradient><linearGradient id="cash-hand"><stop stop-color="#d69968"/><stop offset="1" stop-color="#77433c"/></linearGradient><linearGradient id="cash-metal"><stop stop-color="#e1dac2"/><stop offset=".35" stop-color="#586568"/><stop offset=".7" stop-color="#20292d"/><stop offset="1" stop-color="#b8b4a4"/></linearGradient><pattern id="cash-dust" width="45" height="45" patternUnits="userSpaceOnUse"><circle cx="8" cy="12" r="3" fill="#e1d6bb" opacity=".38"/><circle cx="32" cy="29" r="5" fill="#313b3a" opacity=".2"/><path d="M2 41 16 27m18-21 9-4" stroke="#5a615a" stroke-width="3" opacity=".22"/></pattern><filter id="cash-grain"><feTurbulence baseFrequency=".67" numOctaves="2" seed="122" result="n"/><feColorMatrix in="n" values="1 0 0 0 0 0 1 0 0 0 0 0 1 0 0 0 0 0 .08 0"/><feBlend in="SourceGraphic" mode="multiply"/></filter></defs>
<rect width="800" height="560" fill="url(#cash-wall)"/><rect width="800" height="560" fill="url(#cash-dust)"/><path d="M0 0h230v326H0Z" fill="#817b6e" stroke="#343938" stroke-width="10"/><path d="M28 53h159v221H28Z" fill="#4d5856" stroke="#c7ba95" stroke-width="9"/><path d="M47 72h121v182H47Z" fill="#27373a"/>
<!-- reflected eyes only, no bust --> <path d="M301 37c90-36 208-35 302 3l-31 174c-77 37-165 36-244-2Z" fill="url(#cash-metal)" stroke="#1d2426" stroke-width="11"/><path d="M335 91c32-31 76-32 107-2m42 2c31-24 69-18 92 11" stroke="#242326" stroke-width="13" fill="none"/><path d="M353 113c22-14 52-8 65 12-18 26-55 18-65-12Zm142 5c21-11 47-3 57 17-20 22-51 12-57-17Z" fill="#d8c8a5" stroke="#252326" stroke-width="7"/><ellipse cx="390" cy="119" rx="9" ry="13" fill="#161719"/><ellipse cx="529" cy="128" rx="9" ry="13" fill="#161719"/><path d="M343 162c62 18 130 21 202 8" stroke="#a19a89" stroke-width="5" opacity=".5"/>
<!-- workbench fills lower half --> <path d="M0 298c245-27 538-22 800 15v247H0Z" fill="#73503a" stroke="#251c1c" stroke-width="12"/><path d="M0 339c249-29 518-24 800 13m-769 99c238-22 489-17 749 15" stroke="#b78150" stroke-width="7" opacity=".55"/>
<!-- envelope is giant focal object --> <path d="M284 333 632 304l41 185-362 35Z" fill="#cdbb8d" stroke="#2b2120" stroke-width="11"/><path d="m300 347 176 96 141-126" stroke="#867657" stroke-width="7" fill="none"/><path d="M344 492c104-57 198-62 289-23" stroke="#9b8863" stroke-width="5" fill="none"/>
<!-- left hand fans notes --> <path d="M-8 351c76-33 145-29 201 8 23 15 26 38 10 51-14 11-32 0-48-9 12 17 8 35-8 43-17 7-31-8-43-22 4 18-6 32-23 34-18 2-27-16-34-32-15 12-34 10-45-6-12-19 1-48 30-61Z" fill="url(#cash-hand)" stroke="#21191c" stroke-width="10"/><path d="M35 375c39-4 76 7 107 32m-80-16c2 15 8 28 19 39m17-33c4 14 11 26 23 36m14-27c5 13 13 23 24 31" stroke="#7e463d" stroke-width="6"/>
<g fill="#6da16f" stroke="#263c2d" stroke-width="7"><path d="m102 269 124-44 32 76-130 39Z"/><path d="m137 318 137-25 18 82-141 21Z"/><path d="m190 372 141-3-2 85-143-2Z"/></g><g fill="none" stroke="#b9d397" stroke-width="5"><ellipse cx="181" cy="277" rx="25" ry="15"/><ellipse cx="221" cy="338" rx="25" ry="15"/><ellipse cx="261" cy="413" rx="25" ry="15"/></g>
<!-- right thumb physically stuffs envelope --> <path d="M806 318c-80-25-151-14-205 28-22 17-22 41-4 52 16 10 33-4 49-15-10 19-4 36 13 42 18 6 31-11 42-27-2 18 10 32 28 32 19-1 25-20 31-38 17 10 36 5 45-13 9-20-8-50-38-61Z" fill="url(#cash-hand)" stroke="#21191c" stroke-width="10"/><path d="M747 344c-38-1-73 13-102 41m78-19c0 15-5 29-15 41m-20-34c-3 15-10 27-21 37m-16-28c-5 13-13 24-24 32" stroke="#7e463d" stroke-width="6"/>
<!-- tools and thin receipt --> <path d="M74 483l31-174" stroke="#2b2926" stroke-width="18"/><path d="M56 311h98l-17 60H67Z" fill="#bc8d4c" stroke="#28211f" stroke-width="8"/><path d="M679 221l43 15-103 289-42-16Z" fill="#6f7a72" stroke="#252a29" stroke-width="8"/><path d="M626 245l82 29-13 37-82-29Z" fill="#d0a558" stroke="#2b2421" stroke-width="7"/><path d="M490 207l104 6 8 329-109 18Z" fill="#ddd4b7" stroke="#2f2927" stroke-width="8"/><path d="M508 234h74m-72 24h73m-71 25h72m-69 27h70" stroke="#918a78" stroke-width="5"/>
<path d="M218 518c24-9 48-7 72 6m399-12c27-8 53-6 78 8" stroke="#3e2b25" stroke-width="5"/><circle cx="257" cy="469" r="6" fill="#d8cdb0"/><circle cx="700" cy="474" r="5" fill="#d8cdb0"/>
<rect x="6" y="6" width="788" height="548" rx="16" fill="none" stroke="#111617" stroke-width="12"/><rect width="800" height="560" fill="transparent" filter="url(#cash-grain)"/></svg>
