<?xml version="1.0" encoding="UTF-8"?>
<svg xmlns="http://www.w3.org/2000/svg" viewBox="0 0 800 560" role="img" aria-labelledby="celeb-title celeb-desc">
 <title id="celeb-title">BLK-018 Local Celebrity non-final comic-vector mock-up</title><desc id="celeb-desc">A tiny overconfident local celebrity strikes a full-body red-carpet pose while enormous flashes and a much taller crowd nearly erase him; a sharp quiff, absurd veneers, borrowed velvet rope and crumpled pen carry his miniature fame. Non-final placeholder art.</desc>
 <defs><linearGradient id="celeb-night"><stop stop-color="#151938"/><stop offset="1" stop-color="#31466e"/></linearGradient><linearGradient id="celeb-suit"><stop stop-color="#3e83c6"/><stop offset="1" stop-color="#172d66"/></linearGradient><radialGradient id="celeb-flash"><stop stop-color="#fffde1"/><stop offset=".15" stop-color="#ffe29b" stop-opacity=".7"/><stop offset="1" stop-color="#a8d8ff" stop-opacity="0"/></radialGradient><linearGradient id="celeb-skin"><stop stop-color="#e4a777"/><stop offset="1" stop-color="#8d4649"/></linearGradient><filter id="celeb-grain"><feTurbulence baseFrequency=".6" numOctaves="2" seed="118" result="n"/><feColorMatrix in="n" values="1 0 0 0 0 0 1 0 0 0 0 0 1 0 0 0 0 0 .07 0"/><feBlend in="SourceGraphic" mode="multiply"/></filter></defs>
 <rect width="800" height="560" fill="url(#celeb-night)"/><path d="M101 0h602v386H101Z" fill="#22223a" stroke="#0c1020" stroke-width="13"/><path d="M137 42h246v303H137Z" fill="#17263e" stroke="#a17a4a" stroke-width="10"/><path d="M412 42h254v303H412Z" fill="#17263e" stroke="#a17a4a" stroke-width="10"/><path d="M0 380c225-41 566-33 800 20v160H0Z" fill="#2b2e3a" stroke="#12131b" stroke-width="11"/>
 <!-- towering crowd turns protagonist small --> <g stroke="#12131c" stroke-width="9"><path d="M-35 169c24-91 90-118 153-65 49 42 53 124 33 236l-7 147H-30Z" fill="#69455f"/><path d="M39 61c-45 5-64 64-37 100 24 32 70 27 90-8 19-35 5-98-53-92Z" fill="#ae6652"/><path d="M75 187c35-87 110-103 166-42 43 46 38 133 11 228l-13 116H100Z" fill="#3b625d"/><path d="M160 91c-45 1-66 61-41 98 23 34 71 31 92-5 20-36 8-94-51-93Z" fill="#c17a5a"/><path d="M574 171c24-87 95-113 155-55 45 43 47 123 25 232l9 139H580Z" fill="#63434c"/><path d="M656 71c-45 6-62 66-34 101 25 31 72 23 90-14 16-36 0-95-56-87Z" fill="#9d5a49"/><path d="M691 197c31-80 99-98 145-37v327H700Z" fill="#38516b"/></g>
 <path d="M8 130c21-17 52-14 69 7m57 14c23-16 51-11 65 9m437-26c21-16 51-11 66 8" stroke="#ead9b3" stroke-width="8" fill="none"/><path d="M14 177c28 14 55 10 75-8m55 31c28 10 53 5 72-14m428-5c25 12 50 7 68-12" stroke="#47262d" stroke-width="7" fill="none"/>
 <!-- genuinely small full figure --> <path d="M323 267c32-24 82-24 114 0 35 27 49 83 46 151l-4 91H282l-3-91c-3-69 7-123 44-151Z" fill="url(#celeb-suit)" stroke="#11152b" stroke-width="10"/><path d="M298 350c55 17 110 16 169-2m-176 61c60 17 119 16 184-2" stroke="#75a9dc" stroke-width="6" fill="none" opacity=".45"/><path d="M341 270l40 65 38-66" fill="#efe1bd" stroke="#142049" stroke-width="7"/><path d="M376 291h17v84h-17Z" fill="#b5484c"/>
 <!-- tiny square skull with quiff and giant veneer mouth --> <path d="M323 159c37-29 87-22 113 13 25 34 15 90-20 115-34 25-82 16-105-19-22-34-16-87 12-109Z" fill="url(#celeb-skin)" stroke="#211722" stroke-width="9"/><path d="M322 163c14-42 50-58 83-50l-11 32c20-20 42-23 58-5-10 22-25 36-45 41-33-11-58-8-85 6Z" fill="#2e2027" stroke="#18151b" stroke-width="8"/><path d="M317 204c14-12 33-11 44 1m30 0c15-9 31-4 40 9" stroke="#45272d" stroke-width="7" fill="none"/><path d="M327 216c10-6 23-3 28 7m43-3c10-4 21 1 25 10" stroke="#f0dfb8" stroke-width="6"/><circle cx="346" cy="220" r="4"/><circle cx="414" cy="225" r="4"/><path d="M375 208c-5 17-10 29 2 35 11 5 23 0 26-9" stroke="#69373a" stroke-width="6" fill="none"/><path d="M327 247c31-19 70-12 94 16-13 45-76 51-94-16Z" fill="#431f2b" stroke="#20161d" stroke-width="7"/><path d="M338 250c22-8 50-4 69 10l-5 21c-22 8-42 6-59-4Z" fill="#f4e9c8"/><path d="M349 251v27m19-31v34m20-31v30" stroke="#8e6e59" stroke-width="3"/>
 <!-- absurd peacock pose and pen --> <path d="M309 310c-45 10-80 35-108 72" stroke="#285285" stroke-width="39" fill="none" stroke-linecap="round"/><path d="M216 361c-20 1-40 11-54 26-10 10-7 22 3 26 10 4 18-4 25-10-3 11 1 20 10 22 10 2 14-7 17-16 2 10 8 16 17 14 10-3 9-14 8-23 9 5 18 2 22-6 5-10-5-18-15-24-10-6-19-10-33-9Z" fill="url(#celeb-skin)" stroke="#211722" stroke-width="7"/><path d="M163 394l91-31" stroke="#d9cba9" stroke-width="7"/><path d="m237 365 19 1-13 10Z" fill="#d9a342"/>
 <path d="M448 308c44 9 80 31 111 65" stroke="#285285" stroke-width="39" fill="none" stroke-linecap="round"/><path d="M543 351c20 0 42 9 57 23 10 10 8 22-2 26-10 4-18-4-26-9 4 10 0 20-9 22-10 2-15-7-18-16-1 10-8 17-17 14-9-3-8-14-7-23-9 5-18 3-22-5-6-10 4-19 14-25Z" fill="url(#celeb-skin)" stroke="#211722" stroke-width="7"/>
 <!-- skinny legs and shiny, too-large shoes --> <path d="M324 408l36 2-11 92-52 28c-15 7-25-5-18-18l46-43Z" fill="#1d2f55" stroke="#101325" stroke-width="9"/><path d="M410 408l35-1 17 64 43 30c13 10 8 24-7 27h-70l-28-58Z" fill="#1d2f55" stroke="#101325" stroke-width="9"/><path d="M289 499c29-4 50 4 65 23-5 26-70 31-78 8-4-12 1-24 13-31Zm157-3c28-4 52 5 71 26-6 24-70 29-82 7-7-13-3-26 11-33Z" fill="#3b2925" stroke="#11131a" stroke-width="8"/>
 <!-- rope and giant flashes --> <path d="M-20 462c179-60 286 29 424-12 143-43 247-3 416-51" stroke="#351225" stroke-width="30" fill="none"/><path d="M-20 455c179-60 286 29 424-12 143-43 247-3 416-51" stroke="#a52f5c" stroke-width="15" fill="none"/><circle cx="57" cy="80" r="198" fill="url(#celeb-flash)"/><circle cx="745" cy="91" r="215" fill="url(#celeb-flash)"/><path d="M57 0v169M0 80h139M15 30l95 103m-98 5L118 23m627-23v186m-81-94h136m-112-60 107 118m-125 12L798 26" stroke="#fff8cb" stroke-width="7" opacity=".85"/>
 <rect x="6" y="6" width="788" height="548" rx="16" fill="none" stroke="#090d19" stroke-width="12"/><rect width="800" height="560" fill="transparent" filter="url(#celeb-grain)"/>
</svg>
