<?xml version="1.0" encoding="UTF-8"?>
<svg xmlns="http://www.w3.org/2000/svg" viewBox="0 0 800 560" role="img" aria-labelledby="duty-title duty-desc"><title id="duty-title">BLK-110 Duty-Free non-final comic-vector mock-up</title><desc id="duty-desc">A wide glass-walled transit scene catches an overexcited traveller spinning between anonymous cartons, wheeled case and unmarked bag; three warped reflections multiply the human motion through purple haze and white flashes. Non-final placeholder art.</desc>
<defs><linearGradient id="duty-bg"><stop stop-color="#3d1e5b"/><stop offset="1" stop-color="#141426"/></linearGradient><linearGradient id="duty-coat"><stop stop-color="#8d4aa2"/><stop offset="1" stop-color="#382354"/></linearGradient><linearGradient id="duty-skin"><stop stop-color="#d08c69"/><stop offset="1" stop-color="#6d3b49"/></linearGradient><linearGradient id="duty-glass"><stop stop-color="#e9f3ff" stop-opacity=".4"/><stop offset="1" stop-color="#7a8fb0" stop-opacity=".08"/></linearGradient><radialGradient id="duty-flash"><stop stop-color="#fffde6"/><stop offset=".16" stop-color="#f2e6ff" stop-opacity=".65"/><stop offset="1" stop-color="#d7c3ff" stop-opacity="0"/></radialGradient><filter id="duty-grain"><feTurbulence baseFrequency=".63" numOctaves="2" seed="110" result="n"/><feColorMatrix in="n" values="1 0 0 0 0 0 1 0 0 0 0 0 1 0 0 0 0 0 .07 0"/><feBlend in="SourceGraphic" mode="multiply"/></filter></defs>
<rect width="800" height="560" fill="url(#duty-bg)"/><path d="M0 0h800v384H0Z" fill="#24203b"/><g fill="url(#duty-glass)" stroke="#8a83a7" stroke-width="8"><path d="M24 34h220v322H24Z"/><path d="M291 34h220v322H291Z"/><path d="M558 34h218v322H558Z"/></g><path d="M0 390c213-43 586-36 800 14v156H0Z" fill="#292334" stroke="#12121a" stroke-width="11"/><path d="M24 421c227-37 526-30 752 16" stroke="#6e6082" stroke-width="7"/>
<!-- reflections are distorted partial humans, not duplicates --> <g opacity=".32"><path d="M53 128c31-30 76-26 102 4 30 35 37 97 29 185l-5 64H35l-3-71c-3-87-9-145 21-182Z" fill="#a36aab"/><circle cx="101" cy="90" r="40" fill="#c87c72"/><path d="M618 113c34-25 78-17 99 17 25 39 25 101 17 181l-7 67H594l-1-80c-2-88-1-157 25-185Z" fill="#6e4e91"/><circle cx="666" cy="77" r="39" fill="#b66e68"/></g>
<!-- spinning full figure at centre --> <path d="M293 184c55-31 126-22 166 27 40 48 48 122 38 213l-12 108-252-16-11-99c-11-105 15-200 71-233Z" fill="url(#duty-coat)" stroke="#15131e" stroke-width="12"/><path d="M244 296c74 27 153 24 237-9m-248 89c85 25 168 21 251-14m-245 91c82 22 162 19 241-9" stroke="#c781d5" stroke-width="7" fill="none" opacity=".45"/><path d="M314 190l72 119 64-116" fill="#d9c3a2" stroke="#372345" stroke-width="9"/><path d="M376 233h24l6 131h-25Z" fill="#d54555"/>
<!-- diamond laughing face, curly crest --> <path d="M310 61c43-30 102-14 128 30 24 42 9 99-26 127-34 27-82 17-106-22-23-38-24-104 4-135Z" fill="url(#duty-skin)" stroke="#21171e" stroke-width="10"/><path d="M309 68c-5-35 19-57 47-52 18-20 51-8 55 20 24 7 34 34 21 56-40-17-78-8-117 15Z" fill="#292030" stroke="#17131b" stroke-width="8"/><path d="M299 119c18-16 42-15 57 3m33 1c16-9 33-3 42 12" stroke="#472832" stroke-width="8" fill="none"/><path d="M313 133c12-7 27-3 34 10m49-4c11-4 23 1 28 12" stroke="#eddfbb" stroke-width="7"/><circle cx="334" cy="138" r="5"/><circle cx="416" cy="145" r="5"/><path d="M374 126c-7 25-14 43 1 52 14 8 31 1 34-12" stroke="#6c3940" stroke-width="7" fill="none"/><path d="M326 184c31 4 58-3 79-21-7 33-57 46-79 21Z" fill="#652d49" stroke="#21171e" stroke-width="7"/>
<!-- windmill arms, case and bag --> <path d="M279 279c-66-2-122 21-170 67" stroke="#6d3b80" stroke-width="55" fill="none" stroke-linecap="round"/><path d="M123 316c-30-3-62 9-84 30v92c24 11 51 2 63-21 7 13 20 18 32 12 12-7 7-22 4-35 14 4 26-3 30-16 4-15-12-25-28-32Z" fill="url(#duty-skin)" stroke="#21171e" stroke-width="8"/><path d="M463 274c66 4 121 31 168 80" stroke="#6d3b80" stroke-width="55" fill="none" stroke-linecap="round"/><path d="M616 325c30-3 62 10 84 32 13 13 9 28-4 33-12 4-22-7-31-16 2 13-5 24-17 24-12 0-16-13-19-25-4 11-13 18-24 13-11-6-9-19-6-31-13 4-24-2-29-14-5-14 10-24 24-30Z" fill="url(#duty-skin)" stroke="#21171e" stroke-width="8"/>
<path d="M45 372h146l18 188H21Z" fill="#4e3a52" stroke="#15131a" stroke-width="10"/><path d="M82 372c8-70 83-71 95 0" stroke="#b89964" stroke-width="11" fill="none"/><circle cx="52" cy="547" r="13" fill="#1a171d"/><circle cx="180" cy="547" r="13" fill="#1a171d"/><path d="M586 373h156l26 187H559Z" fill="#8d7354" stroke="#1c1718" stroke-width="10"/><path d="M611 373c13-80 97-81 112 0" stroke="#c2a776" stroke-width="11" fill="none"/>
<!-- plain cartons and flashes --> <g fill="#b7a98a" stroke="#2c2530" stroke-width="7"><path d="m77 239 86-17 17 72-90 18Z"/><path d="m637 215 91 7-5 76-94-9Z"/><path d="m522 101 77-14 16 65-80 17Z"/></g><circle cx="50" cy="83" r="150" fill="url(#duty-flash)"/><circle cx="754" cy="91" r="165" fill="url(#duty-flash)"/><path d="M51 0v152M0 82h126m-93-43 74 82m647-121v169m-68-80h114m-91-51 87 96" stroke="#fffcec" stroke-width="7" opacity=".8"/>
<!-- identity repair: towering curl, laughing underbite and one conspicuous tooth gap --><path d="M318 67c-4-38 21-57 51-49 12-28 53-21 57 12 22 10 27 37 10 55" fill="#292030" stroke="#17131b" stroke-width="8"/><path d="M326 181c33-20 76-12 103 18-15 58-89 67-103-18Z" fill="#56213d" stroke="#21171e" stroke-width="8"/><path d="M343 185c23-8 52-3 72 11l-6 24c-24 9-45 6-63-6Z" fill="#efe0b7"/><path d="M376 185v35m-26-31 2 25m51-20-3 26" stroke="#806252" stroke-width="4"/><rect x="6" y="6" width="788" height="548" rx="17" fill="none" stroke="#0d0d14" stroke-width="12"/><rect width="800" height="560" fill="transparent" filter="url(#duty-grain)"/></svg>
